<svg xmlns="http://www.w3.org/2000/svg" version="1.1" xmlns:xlink="http://www.w3.org/1999/xlink" xmlns:svgjs="http://svgjs.dev/svgjs" viewBox="0 0 800 800"><defs><filter id="bbburst-blur-1" x="-100%" y="-100%" width="400%" height="400%"><feGaussianBlur in="SourceGraphic" stdDeviation="1"></feGaussianBlur></filter><filter id="bbburst-blur-2" x="-100%" y="-100%" width="400%" height="400%"><feGaussianBlur in="SourceGraphic" stdDeviation="2"></feGaussianBlur></filter><filter id="bbburst-blur-3" x="-100%" y="-100%" width="400%" height="400%"><feGaussianBlur in="SourceGraphic" stdDeviation="4"></feGaussianBlur></filter><filter id="bbburst-blur-4" x="-100%" y="-100%" width="400%" height="400%"><feGaussianBlur in="SourceGraphic" stdDeviation="12"></feGaussianBlur></filter><symbol id="bbburst-shape-1" viewBox="0 0 194 167"><path d="m97 0 96.129 166.5H.871L97 0Z"></path></symbol><symbol id="bbburst-shape-4" viewBox="0 0 149 143"><path d="M71.647 2.781c.898-2.764 4.808-2.764 5.706 0l15.445 47.534a3 3 0 0 0 2.853 2.073h49.98c2.906 0 4.115 3.719 1.764 5.427L106.96 87.193a2.999 2.999 0 0 0-1.09 3.354l15.445 47.534c.898 2.764-2.266 5.062-4.617 3.354l-40.435-29.378a3 3 0 0 0-3.526 0l-40.435 29.378c-2.351 1.708-5.515-.59-4.617-3.354L43.13 90.547a3 3 0 0 0-1.09-3.354L1.605 57.815c-2.35-1.708-1.142-5.427 1.764-5.427h49.98a3 3 0 0 0 2.853-2.073L71.647 2.781Z"></path></symbol><symbol id="bbburst-shape-6" viewBox="0 0 133 116"><path d="M59.7487 10.2513c-13.6683-13.66839-35.8291-13.66839-49.4974 0-13.66839 13.6683-13.66839 35.8291 0 49.4974l49.4974-49.4974ZM66.5 66.5 41.7513 91.2487 66.5 115.997l24.7487-24.7483L66.5 66.5Zm56.249-6.7513c13.668-13.6683 13.668-35.8291 0-49.4974-13.669-13.66839-35.8294-13.66839-49.4977 0l49.4977 49.4974Zm-112.4977 0 31.5 31.5 49.4974-49.4974-31.5-31.5-49.4974 49.4974Zm80.9974 31.5 31.5003-31.5-49.4977-49.4974-31.5 31.5 49.4974 49.4974Z"></path></symbol><symbol id="bbburst-shape-8" viewBox="0 0 87 168"><path d="m12 12 31.2546 18.0749c16.4102 9.4902 20.014 31.6325 7.4603 45.8369L36.3296 92.1884c-12.5684 14.2206-8.9394 36.3916 7.5068 45.8636L75 156" stroke-width="14" stroke-linecap="round" stroke-linejoin="round"></path></symbol><symbol id="bbburst-shape-10" viewBox="0 0 145 145"><circle cx="72.5" cy="72.5" r="61.5" fill="none" stroke-width="22"></circle></symbol></defs><use xlink:href="#bbburst-shape-6" width="35.00621823803638" opacity="0.33503807328150603" transform="matrix(0.881040464601082,-0.4730409070424138,0.4730409070424138,0.881040464601082,421.7465773575432,251.54402604231615)" fill="#d9005f" filter="url(#bbburst-blur-2)"></use><use xlink:href="#bbburst-shape-6" width="25.02690917791614" opacity="0.07798963643050749" transform="matrix(1.5144923334156333,-0.8768198059038528,0.8768198059038528,1.5144923334156333,231.9685431178462,-557.4317919147223)" fill="#87ea00	" filter="url(#bbburst-blur-4)"></use><use xlink:href="#bbburst-shape-10" width="41.431776812446614" opacity="0.3050067892575744" transform="matrix(0.913447268697516,0.8532960138832525,-0.8532960138832525,0.913447268697516,966.8858133777181,-178.08172458561182)" fill="none" stroke="#d9005f" filter="url(#bbburst-blur-3)"></use><use xlink:href="#bbburst-shape-8" width="34.776300843902014" opacity="0.3787828913956752" transform="matrix(0.9965408484135251,0.08310437679960986,-0.08310437679960986,0.9965408484135251,569.0510215544749,233.8101572776115)" fill="none" stroke="#00819f	" filter="url(#bbburst-blur-2)"></use><use xlink:href="#bbburst-shape-10" width="30.44216192631376" opacity="0.03025327026191471" transform="matrix(1.517104978595129,-0.8722915131547899,0.8722915131547899,1.517104978595129,-224.96915556062757,162.02451484412268)" fill="none" stroke="#00819f	" filter="url(#bbburst-blur-4)"></use><use xlink:href="#bbburst-shape-8" width="24.469072533916147" opacity="0.5299819758525567" transform="matrix(0.9994291935714136,-0.03378294003182488,0.03378294003182488,0.9994291935714136,331.97247436503443,-206.59616623833665)" fill="none" stroke="#ff7f00	" filter="url(#bbburst-blur-2)"></use><use xlink:href="#bbburst-shape-8" width="28.023477343664986" opacity="0.6041474833835498" transform="matrix(0.8249751263646216,0.5651690374389566,-0.5651690374389566,0.8249751263646216,701.3292407067763,217.63421600202622)" fill="none" stroke="#ff7f00	" filter="url(#bbburst-blur-1)"></use><use xlink:href="#bbburst-shape-6" width="35.15259413686525" opacity="0.4033078896295641" transform="matrix(0.984026202410983,-0.17802368653810954,0.17802368653810954,0.984026202410983,88.5024475352392,159.0939550061923)" fill="#00819f	" filter="url(#bbburst-blur-2)"></use><use xlink:href="#bbburst-shape-10" width="27.130834660462273" opacity="0.3382697686010303" transform="matrix(0.9949012792699824,-0.10085357954456768,0.10085357954456768,0.9949012792699824,626.9833633963009,-95.64614967949467)" fill="none" stroke="#ff7f00	" filter="url(#bbburst-blur-2)"></use><use xlink:href="#bbburst-shape-10" width="27.84602678589559" opacity="0.5194942802502303" transform="matrix(0.9700856755791569,0.24276281024104704,-0.24276281024104704,0.9700856755791569,285.32756630977633,94.85829106207376)" fill="none" stroke="#ff7f00	" filter="url(#bbburst-blur-2)"></use><use xlink:href="#bbburst-shape-10" width="19.87019336702432" opacity="0.7189541557046057" transform="matrix(0.9055161435351246,0.4243118119935806,-0.4243118119935806,0.9055161435351246,654.0907636753273,-51.73485350392963)" fill="none" stroke="#00819f	" filter="url(#bbburst-blur-1)"></use><use xlink:href="#bbburst-shape-10" width="36.737319967029094" opacity="0.3640769516324921" transform="matrix(0.8128301734279022,0.5825007374803628,-0.5825007374803628,0.8128301734279022,541.9469880074047,-211.68676964024053)" fill="none" stroke="#ff7f00	" filter="url(#bbburst-blur-2)"></use><use xlink:href="#bbburst-shape-4" width="24.934894492892422" opacity="0.5207533210174375" transform="matrix(0.7284085265769756,-0.6851430641916763,0.6851430641916763,0.7284085265769756,94.66973532920599,331.70968400870197)" fill="#87ea00	" filter="url(#bbburst-blur-2)"></use><use xlink:href="#bbburst-shape-4" width="27.86385797338846" opacity="0.5482867234989987" transform="matrix(0.9289108290726714,-0.3703034858484621,0.3703034858484621,0.9289108290726714,439.97799346670257,63.70781487589238)" fill="#00819f	" filter="url(#bbburst-blur-2)"></use><use xlink:href="#bbburst-shape-6" width="17.157064215425514" opacity="0.9008276820500394" transform="matrix(0.7335950218847247,-0.679586892064547,0.679586892064547,0.7335950218847247,165.3561238848394,122.43021557962811)" fill="#d9005f"></use><use xlink:href="#bbburst-shape-6" width="24.551833905508662" opacity="0.7079327395786528" transform="matrix(0.8746456245549751,0.4847628610432503,-0.4847628610432503,0.8746456245549751,469.3403071069025,109.89636459358815)" fill="#87ea00	" filter="url(#bbburst-blur-1)"></use><use xlink:href="#bbburst-shape-10" width="17.33740907428365" opacity="0.8299522797825596" transform="matrix(0.8651934570671425,-0.5014382133904502,0.5014382133904502,0.8651934570671425,130.39771684923727,12.772432691291215)" fill="none" stroke="#ff7f00	"></use><use xlink:href="#bbburst-shape-4" width="12.585114794537796" opacity="0.8831478787001932" transform="matrix(0.9990696648851493,0.043125453113858334,-0.043125453113858334,0.9990696648851493,372.16523977658767,35.605217686882156)" fill="#ff7f00	"></use><use xlink:href="#bbburst-shape-8" width="34.87139936329318" opacity="0.18262553566494888" transform="matrix(1.1810130465708806,-0.40952189664212924,0.40952189664212924,1.1810130465708806,283.0360441087955,-426.84860379808504)" fill="none" stroke="#00819f	" filter="url(#bbburst-blur-3)"></use><use xlink:href="#bbburst-shape-8" width="21.666511618288396" opacity="0.6370054004030544" transform="matrix(0.987632543685329,0.1567863471532089,-0.1567863471532089,0.987632543685329,294.7406928506474,-40.877890838558926)" fill="none" stroke="#ff7f00	" filter="url(#bbburst-blur-1)"></use><use xlink:href="#bbburst-shape-10" width="40.512420232883535" opacity="0.1967458110351653" transform="matrix(1.2496629189248698,0.02902738472846555,-0.02902738472846555,1.2496629189248698,210.15485066256616,215.1894588540905)" fill="none" stroke="#ff7f00	" filter="url(#bbburst-blur-3)"></use><use xlink:href="#bbburst-shape-10" width="13.32858870820167" opacity="0.9117927468431997" transform="matrix(0.9787662987158244,-0.20497934651599772,0.20497934651599772,0.9787662987158244,287.3052017807071,-21.618561235552136)" fill="none" stroke="#00819f	"></use><use xlink:href="#bbburst-shape-8" width="16.605748632403472" opacity="0.7937398334078885" transform="matrix(0.9635023936595581,0.2676997150022797,-0.2676997150022797,0.9635023936595581,408.1011372583622,30.75688058304604)" fill="none" stroke="#00819f	"></use><use xlink:href="#bbburst-shape-4" width="36.020030326051035" opacity="-0.09071168172108024" transform="matrix(1.374712113436349,1.082897319772917,-1.082897319772917,1.374712113436349,452.1906632540215,168.36175104935683)" fill="#d9005f" filter="url(#bbburst-blur-4)"></use><use xlink:href="#bbburst-shape-4" width="34.8824800928327" opacity="0.4512384177865095" transform="matrix(0.7339566767667197,-0.6791962872613136,0.6791962872613136,0.7339566767667197,339.2178949811082,222.927581868868)" fill="#d9005f" filter="url(#bbburst-blur-2)"></use><use xlink:href="#bbburst-shape-6" width="29.21435669172233" opacity="0.16625400951741232" transform="matrix(1.0998415123008305,0.5940106462175757,-0.5940106462175757,1.0998415123008305,983.4599624861535,50.26629136182896)" fill="#d9005f" filter="url(#bbburst-blur-3)"></use><use xlink:href="#bbburst-shape-10" width="36.29737262185086" opacity="0.27279878777989885" transform="matrix(0.9251680744522459,0.84057363390385,-0.84057363390385,0.9251680744522459,421.4713995518906,149.96148542366757)" fill="none" stroke="#ff7f00	" filter="url(#bbburst-blur-3)"></use><use xlink:href="#bbburst-shape-1" width="14.442963408300262" opacity="0.8712891266016886" transform="matrix(0.7149896070153858,-0.6991350812682654,0.6991350812682654,0.7149896070153858,57.340247635580056,116.33429964875512)" fill="#87ea00	"></use><use xlink:href="#bbburst-shape-6" width="19.946725174488844" opacity="0.7526606589962954" transform="matrix(0.9420303061217855,0.33552779668470856,-0.33552779668470856,0.9420303061217855,622.7078987050149,72.80813255992103)" fill="#ff7f00	" filter="url(#bbburst-blur-1)"></use><use xlink:href="#bbburst-shape-8" width="24.343863255736856" opacity="0.6280913917013935" transform="matrix(0.820905033625803,-0.5710647299280697,0.5710647299280697,0.820905033625803,307.0505103935101,161.34119115768846)" fill="none" stroke="#ff7f00	" filter="url(#bbburst-blur-1)"></use><use xlink:href="#bbburst-shape-10" width="34.76081645149994" opacity="0.27586086017778666" transform="matrix(1.247451852799311,0.0797738989116496,-0.0797738989116496,1.247451852799311,518.7989671099491,206.87673678380145)" fill="none" stroke="#ff7f00	" filter="url(#bbburst-blur-3)"></use><use xlink:href="#bbburst-shape-10" width="51.00008627473325" opacity="0.07435697847349232" transform="matrix(1.7384371057964472,-0.20083931186416681,0.20083931186416681,1.7384371057964472,623.3232503871862,-519.1825658687783)" fill="none" stroke="#ff7f00	" filter="url(#bbburst-blur-4)"></use><use xlink:href="#bbburst-shape-1" width="19.391660888530044" opacity="0.8119703090658398" transform="matrix(0.905818917782438,-0.4236650660456357,0.4236650660456357,0.905818917782438,197.79188447625108,122.95001774359531)" fill="#00819f	"></use><use xlink:href="#bbburst-shape-10" width="40.677121688185046" opacity="-0.08016933953998095" transform="matrix(1.6723254794234994,0.5155846107778657,-0.5155846107778657,1.6723254794234994,913.188798627353,-625.8426907086209)" fill="none" stroke="#00819f	" filter="url(#bbburst-blur-4)"></use><use xlink:href="#bbburst-shape-8" width="27.87018900154141" opacity="0.26026989718017224" transform="matrix(0.9706306543227854,0.78763959581075,-0.78763959581075,0.9706306543227854,688.3806155712832,-331.846828480525)" fill="none" stroke="#00819f	" filter="url(#bbburst-blur-3)"></use><use xlink:href="#bbburst-shape-4" width="19.622866939837472" opacity="0.6578909140018893" transform="matrix(0.7815019740045748,-0.6239027685681102,0.6239027685681102,0.7815019740045748,52.22947549602259,218.035568339426)" fill="#00819f	" filter="url(#bbburst-blur-1)"></use><use xlink:href="#bbburst-shape-6" width="28.794627964689685" opacity="0.2519761951414532" transform="matrix(0.9874650724570506,0.7664285554945038,-0.7664285554945038,0.9874650724570506,990.9433231335954,149.38697249568298)" fill="#ff7f00	" filter="url(#bbburst-blur-3)"></use><use xlink:href="#bbburst-shape-6" width="41.25580266418731" opacity="0.010153843270097829" transform="matrix(1.6483975825371695,-0.5876099130253126,0.5876099130253126,1.6483975825371695,-227.14968548710885,-512.1348475757098)" fill="#ff7f00	" filter="url(#bbburst-blur-4)"></use><use xlink:href="#bbburst-shape-10" width="38.544483150622106" opacity="0.44658508875040426" transform="matrix(0.8241038817528706,-0.5664386922517305,0.5664386922517305,0.8241038817528706,204.386788194733,-163.31622752700684)" fill="none" stroke="#00819f	" filter="url(#bbburst-blur-2)"></use><use xlink:href="#bbburst-shape-1" width="39.53423189899514" opacity="0.36370419670598875" transform="matrix(0.7818574009392228,-0.6234572997379719,0.6234572997379719,0.7818574009392228,419.07781011456103,136.99079762869394)" fill="#00819f	" filter="url(#bbburst-blur-2)"></use><use xlink:href="#bbburst-shape-10" width="21.358621687449393" opacity="0.6738716147514461" transform="matrix(0.9404633536467017,-0.33989510212357993,0.33989510212357993,0.9404633536467017,135.37654487050588,-58.96547135939568)" fill="none" stroke="#ff7f00	" filter="url(#bbburst-blur-1)"></use><use xlink:href="#bbburst-shape-4" width="17.835812981293117" opacity="0.7388719378904045" transform="matrix(0.9061843731599629,0.4228828228252893,-0.4228828228252893,0.9061843731599629,489.2980264511725,-59.276244483756045)" fill="#00819f	" filter="url(#bbburst-blur-1)"></use><use xlink:href="#bbburst-shape-6" width="12.536705102220232" opacity="0.8089235166366596" transform="matrix(0.8467058825476839,0.5320612262316695,-0.5320612262316695,0.8467058825476839,537.651963250523,108.1044798219898)" fill="#00819f	"></use><use xlink:href="#bbburst-shape-6" width="21.269533926391116" opacity="0.6114156592484568" transform="matrix(0.756644856603985,0.65382609383133,-0.65382609383133,0.756644856603985,799.5632251640235,-5.724408680650242)" fill="#d9005f" filter="url(#bbburst-blur-1)"></use><use xlink:href="#bbburst-shape-10" width="37.62344137861581" opacity="0.4843675025296714" transform="matrix(0.9471990550835833,0.32064614460299845,-0.32064614460299845,0.9471990550835833,577.080228244776,237.3476768308969)" fill="none" stroke="#ff7f00	" filter="url(#bbburst-blur-2)"></use><use xlink:href="#bbburst-shape-4" width="46.03105203682463" opacity="0.19055463821926688" transform="matrix(1.186147194002836,0.39440440433544605,-0.39440440433544605,1.186147194002836,170.2449333658176,-29.320300028869212)" fill="#ff7f00	" filter="url(#bbburst-blur-3)"></use><use xlink:href="#bbburst-shape-10" width="19.525093178158254" opacity="0.6607682235321256" transform="matrix(0.9467539871751564,0.3219578975082673,-0.3219578975082673,0.9467539871751564,465.2854543633766,-124.53226211605033)" fill="none" stroke="#00819f	" filter="url(#bbburst-blur-1)"></use><use xlink:href="#bbburst-shape-10" width="28.238662809633333" opacity="0.15794850883921696" transform="matrix(1.0360029523964651,0.6994268243539187,-0.6994268243539187,1.0360029523964651,1022.874438701682,-149.2206874376334)" fill="none" stroke="#ff7f00	" filter="url(#bbburst-blur-3)"></use><use xlink:href="#bbburst-shape-8" width="32.45525677017815" opacity="0.5238891066689351" transform="matrix(0.9995414285145223,-0.03028089633990528,0.03028089633990528,0.9995414285145223,187.39628885657405,-108.62827520061239)" fill="none" stroke="#87ea00	" filter="url(#bbburst-blur-2)"></use><use xlink:href="#bbburst-shape-6" width="19.02760304514006" opacity="0.8030441793322742" transform="matrix(0.8503330462910424,0.5262449148309138,-0.5262449148309138,0.8503330462910424,690.8996380828828,59.81215161201874)" fill="#87ea00	"></use><use xlink:href="#bbburst-shape-10" width="26.221402555407852" opacity="0.14873673177241287" transform="matrix(1.179387515653433,0.41418001873680865,-0.41418001873680865,1.179387515653433,448.2658996174414,292.06942278503715)" fill="none" stroke="#00819f	" filter="url(#bbburst-blur-3)"></use><use xlink:href="#bbburst-shape-6" width="15.731480185578363" opacity="0.7559792761994973" transform="matrix(0.9823207424473493,-0.1872056595236593,0.1872056595236593,0.9823207424473493,252.48204260394814,97.11586286996857)" fill="#ff7f00	" filter="url(#bbburst-blur-1)"></use><use xlink:href="#bbburst-shape-8" width="21.979434709657518" opacity="0.5558447312276407" transform="matrix(0.7418608943404006,0.67055381100137,-0.67055381100137,0.7418608943404006,460.45094305955365,105.9223105698066)" fill="none" stroke="#ff7f00	" filter="url(#bbburst-blur-1)"></use><use xlink:href="#bbburst-shape-10" width="33.82894647684232" opacity="0.09728431566409579" transform="matrix(1.6726053129407128,0.5146760798040847,-0.5146760798040847,1.6726053129407128,762.4827912264802,83.95261187472704)" fill="none" stroke="#d9005f" filter="url(#bbburst-blur-4)"></use><use xlink:href="#bbburst-shape-6" width="23.636934468823313" opacity="0.721830957278849" transform="matrix(0.7691593734054999,-0.6390570070834517,0.6390570070834517,0.7691593734054999,211.6460534421725,199.07762605508492)" fill="#d9005f" filter="url(#bbburst-blur-1)"></use><use xlink:href="#bbburst-shape-8" width="13.177802684706343" opacity="0.874991544804799" transform="matrix(0.9979900099519254,0.0633714449587178,-0.0633714449587178,0.9979900099519254,468.25302496692564,-26.3756511235199)" fill="none" stroke="#87ea00	"></use><use xlink:href="#bbburst-shape-6" width="21.187924745794533" opacity="0.5907557938915833" transform="matrix(0.9973821494823928,0.07231077301399787,-0.07231077301399787,0.9973821494823928,514.9830428429158,-156.49393120048572)" fill="#ff7f00	" filter="url(#bbburst-blur-1)"></use><use xlink:href="#bbburst-shape-6" width="17.875319609301748" opacity="0.7738914746254228" transform="matrix(0.7811222116173843,-0.6243781630694386,0.6243781630694386,0.7811222116173843,237.87297566056168,55.68012982731534)" fill="#ff7f00	" filter="url(#bbburst-blur-1)"></use><use xlink:href="#bbburst-shape-1" width="11.81756048632731" opacity="0.9522873543729755" transform="matrix(0.9020609201652623,0.43160873057736027,-0.43160873057736027,0.9020609201652623,577.2098501154035,55.68956429500781)" fill="#00819f	"></use><use xlink:href="#bbburst-shape-6" width="23.270872707936597" opacity="0.5909482241084014" transform="matrix(0.9109786202390754,0.4124535773481791,-0.4124535773481791,0.9109786202390754,410.66891884058407,145.82982310335012)" fill="#ff7f00	" filter="url(#bbburst-blur-1)"></use><use xlink:href="#bbburst-shape-10" width="42.7762377637534" opacity="0.28214063665331757" transform="matrix(1.2024176573896348,-0.3416017816077996,0.3416017816077996,1.2024176573896348,368.5876562944695,-368.96732827116784)" fill="none" stroke="#00819f	" filter="url(#bbburst-blur-3)"></use><use xlink:href="#bbburst-shape-6" width="31.785939486914067" opacity="-0.06948580775591973" transform="matrix(1.2890175408558786,-1.183610484646813,1.183610484646813,1.2890175408558786,-415.78590826824933,-454.60592295646984)" fill="#ff7f00	" filter="url(#bbburst-blur-4)"></use><use xlink:href="#bbburst-shape-4" width="23.70476782368862" opacity="0.6889448613640877" transform="matrix(0.9041186987483898,-0.42728138102837854,0.42728138102837854,0.9041186987483898,356.97930001412726,63.015813348110726)" fill="#d9005f" filter="url(#bbburst-blur-1)"></use><use xlink:href="#bbburst-shape-4" width="14.536433584784849" opacity="0.9523782534717953" transform="matrix(0.9927112612934641,0.12051701830504921,-0.12051701830504921,0.9927112612934641,420.0604039176111,6.655799179118674)" fill="#ff7f00	"></use><use xlink:href="#bbburst-shape-6" width="39.59069276046927" opacity="0.3297328463638922" transform="matrix(1.2245385368877022,0.25100870836870576,-0.25100870836870576,1.2245385368877022,175.05759055554105,-112.3952127489971)" fill="#00819f	" filter="url(#bbburst-blur-3)"></use><use xlink:href="#bbburst-shape-10" width="23.928637260124642" opacity="0.6485393760089285" transform="matrix(0.911523310528063,-0.41124840955797065,0.41124840955797065,0.911523310528063,378.8938838050942,5.589967296047121)" fill="none" stroke="#87ea00	" filter="url(#bbburst-blur-1)"></use><use xlink:href="#bbburst-shape-6" width="19.01136116987982" opacity="0.7672916398789259" transform="matrix(0.81900574199091,0.573785320992023,-0.573785320992023,0.81900574199091,643.0136329850081,169.4764429944306)" fill="#ff7f00	" filter="url(#bbburst-blur-1)"></use><use xlink:href="#bbburst-shape-10" width="31.96008473130734" opacity="0.18813273984077084" transform="matrix(1.0049565487273207,-0.7433453673563,0.7433453673563,1.0049565487273207,118.5626659813488,373.8357215433599)" fill="none" stroke="#87ea00	" filter="url(#bbburst-blur-3)"></use><use xlink:href="#bbburst-shape-6" width="24.154701474827895" opacity="0.6188957418863403" transform="matrix(0.9744868955583511,-0.22444440377306651,0.22444440377306651,0.9744868955583511,320.0361803549249,-157.21716244261657)" fill="#ff7f00	" filter="url(#bbburst-blur-1)"></use><use xlink:href="#bbburst-shape-4" width="11.541145317762536" opacity="0.8536698537419148" transform="matrix(0.845785882817604,0.5335224835247772,-0.5335224835247772,0.845785882817604,636.2712300590438,118.33223868393014)" fill="#d9005f"></use><use xlink:href="#bbburst-shape-6" width="37.09232929908079" opacity="0.3601802893861006" transform="matrix(0.8642610514182049,0.5030435716729705,-0.5030435716729705,0.8642610514182049,362.9286773517398,-138.05774517409682)" fill="#ff7f00	" filter="url(#bbburst-blur-2)"></use><use xlink:href="#bbburst-shape-6" width="38.54622454763939" opacity="0.1579791461586879" transform="matrix(1.1231763043402585,0.5486118749795333,-0.5486118749795333,1.1231763043402585,848.0235488872574,-344.37678682558754)" fill="#ff7f00	" filter="url(#bbburst-blur-3)"></use><use xlink:href="#bbburst-shape-8" width="35.96149384455782" opacity="0.47811545113702203" transform="matrix(0.9997058091757582,-0.024254795407143512,0.024254795407143512,0.9997058091757582,568.5266324230035,-128.51049773722627)" fill="none" stroke="#ff7f00	" filter="url(#bbburst-blur-2)"></use><use xlink:href="#bbburst-shape-4" width="30.947980023748602" opacity="0.15339837752043706" transform="matrix(1.2499984233593011,-0.0019853461314128964,0.0019853461314128964,1.2499984233593011,38.18167036030177,-268.433694404327)" fill="#00819f	" filter="url(#bbburst-blur-3)"></use><use xlink:href="#bbburst-shape-4" width="40.01685953701256" opacity="0.2122486096378956" transform="matrix(1.237945409022339,-0.17317957235342005,0.17317957235342005,1.237945409022339,660.0247029797699,-109.0914648445281)" fill="#00819f	" filter="url(#bbburst-blur-3)"></use><use xlink:href="#bbburst-shape-6" width="20.711336199741442" opacity="0.7488800481630051" transform="matrix(0.7172587655214334,0.6968069053063908,-0.6968069053063908,0.7172587655214334,667.4194517308567,-7.056734773727442)" fill="#ff7f00	" filter="url(#bbburst-blur-1)"></use><use xlink:href="#bbburst-shape-1" width="36.57052942614143" opacity="0.402648267147236" transform="matrix(0.9657284710172126,-0.2595544649331944,0.2595544649331944,0.9657284710172126,15.288121862141082,72.91177582584345)" fill="#ff7f00	" filter="url(#bbburst-blur-2)"></use><use xlink:href="#bbburst-shape-1" width="16.50264348812553" opacity="0.8355812698933581" transform="matrix(0.8825412530976676,-0.47023498017565496,0.47023498017565496,0.8825412530976676,262.9760699458635,96.3848313359328)" fill="#ff7f00	"></use><use xlink:href="#bbburst-shape-10" width="30.343965238075036" opacity="0.5607850081268488" transform="matrix(0.9925876050799248,0.12153125623352727,-0.12153125623352727,0.9925876050799248,310.4910065828526,-153.53980540330033)" fill="none" stroke="#00819f	" filter="url(#bbburst-blur-1)"></use><use xlink:href="#bbburst-shape-4" width="23.129679365184533" opacity="0.6969481048877545" transform="matrix(0.9963000554733618,0.08594300124952761,-0.08594300124952761,0.9963000554733618,394.31258837564184,133.86033703988141)" fill="#d9005f" filter="url(#bbburst-blur-1)"></use><use xlink:href="#bbburst-shape-4" width="21.923131782280823" opacity="0.48455460780222825" transform="matrix(0.9849185915387737,-0.17301840376468103,0.17301840376468103,0.9849185915387737,92.13324675047213,-35.385165484444144)" fill="#ff7f00	" filter="url(#bbburst-blur-2)"></use><use xlink:href="#bbburst-shape-8" width="16.02770375506145" opacity="0.7671160922680045" transform="matrix(0.9933677788007174,-0.11498024195716845,0.11498024195716845,0.9933677788007174,246.11653093015718,-27.99197296200782)" fill="none" stroke="#ff7f00	" filter="url(#bbburst-blur-1)"></use><use xlink:href="#bbburst-shape-10" width="16.34731479160005" opacity="0.8890193751962835" transform="matrix(0.7892950339927984,0.6140141279435736,-0.6140141279435736,0.7892950339927984,633.0398964993647,128.82882762897663)" fill="none" stroke="#00819f	"></use><use xlink:href="#bbburst-shape-8" width="40.48052633283295" opacity="0.1213355110863692" transform="matrix(1.0798204826245281,0.6296727128473418,-0.6296727128473418,1.0798204826245281,325.2531650638822,207.24308373482205)" fill="none" stroke="#ff7f00	" filter="url(#bbburst-blur-3)"></use><use xlink:href="#bbburst-shape-6" width="36.40020216149687" opacity="0.2961655450281868" transform="matrix(1.1984015787082882,-0.3554344611169302,0.3554344611169302,1.1984015787082882,20.342881207604762,159.05802096289256)" fill="#d9005f" filter="url(#bbburst-blur-3)"></use><use xlink:href="#bbburst-shape-8" width="21.083932506110102" opacity="0.5748391828010236" transform="matrix(0.7266991310756704,-0.6869558740515038,0.6869558740515038,0.7266991310756704,43.72595666869631,293.06503871487774)" fill="none" stroke="#d9005f" filter="url(#bbburst-blur-1)"></use><use xlink:href="#bbburst-shape-1" width="41.28444055976688" opacity="0.35102086709641955" transform="matrix(0.9434089320586517,-0.33163170371958456,0.33163170371958456,0.9434089320586517,-23.112260682904036,-79.30245846835595)" fill="#00819f	" filter="url(#bbburst-blur-2)"></use><use xlink:href="#bbburst-shape-4" width="42.111753644889966" opacity="-0.07748274659423515" transform="matrix(1.7437785772700565,0.14743226734340634,-0.14743226734340634,1.7437785772700565,757.4426081745702,49.796971386813425)" fill="#ff7f00	" filter="url(#bbburst-blur-4)"></use><use xlink:href="#bbburst-shape-6" width="42.19774284627316" opacity="0.09049912240842128" transform="matrix(1.6089522836725245,0.6883113749350424,-0.6883113749350424,1.6089522836725245,275.03167601326356,-75.62719768597287)" fill="#ff7f00	" filter="url(#bbburst-blur-4)"></use><use xlink:href="#bbburst-shape-6" width="33.961881435801274" opacity="0.484244833269766" transform="matrix(0.9411063359418577,0.3381107280908006,-0.3381107280908006,0.9411063359418577,370.1791130175611,195.69161246670012)" fill="#d9005f" filter="url(#bbburst-blur-2)"></use><use xlink:href="#bbburst-shape-1" width="18.185295681000692" opacity="0.8205519008806966" transform="matrix(0.9991048440415641,-0.04230260763454014,0.04230260763454014,0.9991048440415641,418.94851285760114,-66.31628333375403)" fill="#ff7f00	"></use><use xlink:href="#bbburst-shape-6" width="37.278334149667245" opacity="0.3974315281407833" transform="matrix(0.845510419032368,-0.5339589228655228,0.5339589228655228,0.845510419032368,26.00203914583824,-157.5990335183078)" fill="#87ea00	" filter="url(#bbburst-blur-2)"></use><use xlink:href="#bbburst-shape-10" width="37.74266472766705" opacity="0.05724042103544846" transform="matrix(1.4964781393024709,0.9072227833282268,-0.9072227833282268,1.4964781393024709,1087.6308012218806,19.62765183213503)" fill="none" stroke="#87ea00	" filter="url(#bbburst-blur-4)"></use><use xlink:href="#bbburst-shape-8" width="36.126701883391206" opacity="0.15711818582526826" transform="matrix(1.1861740782785875,-0.39432354231004696,0.39432354231004696,1.1861740782785875,468.91771969591554,219.57765106964013)" fill="none" stroke="#ff7f00	" filter="url(#bbburst-blur-3)"></use><use xlink:href="#bbburst-shape-1" width="31.886481140388547" opacity="0.15895630433429975" transform="matrix(1.1874722408867109,0.39039682007349064,-0.39039682007349064,1.1874722408867109,428.9504896761738,-443.8198499298578)" fill="#d9005f" filter="url(#bbburst-blur-3)"></use><use xlink:href="#bbburst-shape-6" width="30.939411313883344" opacity="0.4828645644019276" transform="matrix(0.9919128682089028,0.12692069130597977,-0.12692069130597977,0.9919128682089028,664.5978747891886,-39.14546121942908)" fill="#87ea00	" filter="url(#bbburst-blur-2)"></use><use xlink:href="#bbburst-shape-10" width="26.068626671157176" opacity="0.6419402246750185" transform="matrix(0.9948524345797874,0.10133426572818115,-0.10133426572818115,0.9948524345797874,450.67234836967634,160.19979072896308)" fill="none" stroke="#ff7f00	" filter="url(#bbburst-blur-1)"></use><use xlink:href="#bbburst-shape-4" width="18.20123351721529" opacity="0.8179768622796948" transform="matrix(0.7387059530383611,-0.6740278295038615,0.6740278295038615,0.7387059530383611,93.22020448860923,34.62654473626088)" fill="#87ea00	"></use><use xlink:href="#bbburst-shape-10" width="38.7925026413533" opacity="0.17912832799282163" transform="matrix(1.2242150247919874,-0.25258181461370827,0.25258181461370827,1.2242150247919874,-87.66615962927389,-153.79956512266045)" fill="none" stroke="#00819f	" filter="url(#bbburst-blur-3)"></use><use xlink:href="#bbburst-shape-4" width="34.1725912597201" opacity="0.31028277848481933" transform="matrix(1.214081931967343,-0.2974980041453116,0.2974980041453116,1.214081931967343,194.43255098999168,222.79849241684673)" fill="#00819f	" filter="url(#bbburst-blur-3)"></use><use xlink:href="#bbburst-shape-4" width="20.313686383277133" opacity="0.7041110283896121" transform="matrix(0.9746727715708939,-0.22363583871623063,0.22363583871623063,0.9746727715708939,167.6393133530451,18.507061678697823)" fill="#ff7f00	" filter="url(#bbburst-blur-1)"></use><use xlink:href="#bbburst-shape-1" width="43.12784277362772" opacity="0.14275574194623486" transform="matrix(1.247930057552951,-0.07190668575235468,0.07190668575235468,1.247930057552951,149.35062110943858,-430.40840805813707)" fill="#00819f	" filter="url(#bbburst-blur-3)"></use><use xlink:href="#bbburst-shape-10" width="31.10409999566884" opacity="0.42824382619514834" transform="matrix(0.8913861725219516,0.4532446264840494,-0.4532446264840494,0.8913861725219516,715.0215150029003,-174.35557271845576)" fill="none" stroke="#ff7f00	" filter="url(#bbburst-blur-2)"></use><use xlink:href="#bbburst-shape-1" width="27.783048224699648" opacity="0.37429666024278696" transform="matrix(0.9898291501726585,-0.1422612156157565,0.1422612156157565,0.9898291501726585,341.602844955832,287.37980197208446)" fill="#ff7f00	" filter="url(#bbburst-blur-2)"></use><use xlink:href="#bbburst-shape-1" width="18.86555342295188" opacity="0.6288632550387889" transform="matrix(0.9277667146872536,-0.37316072022443647,0.37316072022443647,0.9277667146872536,81.91897824804573,80.07035706686122)" fill="#d9005f" filter="url(#bbburst-blur-1)"></use><use xlink:href="#bbburst-shape-1" width="12.466525693680074" opacity="0.9499542527890384" transform="matrix(0.9418451807592385,-0.33604710306830105,0.33604710306830105,0.9418451807592385,271.6960141581107,6.302071183475732)" fill="#ff7f00	"></use><use xlink:href="#bbburst-shape-6" width="21.677247391734767" opacity="0.722667618236736" transform="matrix(0.7534666204676963,-0.6574861609501667,0.6574861609501667,0.7534666204676963,177.6913618843637,-9.100979431547387)" fill="#ff7f00	" filter="url(#bbburst-blur-1)"></use><use xlink:href="#bbburst-shape-8" width="31.94321238874884" opacity="0.18054375120356425" transform="matrix(1.1569051984159366,0.47336071011247016,-0.47336071011247016,1.1569051984159366,311.04717959487175,-331.9983888283365)" fill="none" stroke="#d9005f" filter="url(#bbburst-blur-3)"></use><use xlink:href="#bbburst-shape-1" width="32.46966086669008" opacity="0.40757165605029066" transform="matrix(0.7700625955230179,0.6379683369700669,-0.6379683369700669,0.7700625955230179,528.925081601822,322.7646630515177)" fill="#ff7f00	" filter="url(#bbburst-blur-2)"></use><use xlink:href="#bbburst-shape-10" width="13.751909881534647" opacity="0.8653033694071972" transform="matrix(0.9611545113832434,0.27601087885740794,-0.27601087885740794,0.9611545113832434,510.77725625027256,-46.569686521654376)" fill="none" stroke="#d9005f"></use><use xlink:href="#bbburst-shape-8" width="27.637994918565386" opacity="0.527590127602872" transform="matrix(0.9767917483507422,-0.21419122380223757,0.21419122380223757,0.9767917483507422,452.5000524392036,161.19585895237668)" fill="none" stroke="#ff7f00	" filter="url(#bbburst-blur-2)"></use></svg>